<svg version="1" xmlns="http://www.w3.org/2000/svg" width="1456" height="1456" viewBox="0 0 1092.000000 1092.000000"><path d="M697.9 103.5c-.3.2-2.3.7-4.5 1.1-2.1.3-5.2 1.3-6.9 2.1-3.7 1.9-10.5 8.3-10.5 9.9 0 .7-.5 1.4-1 1.6-1 .3-2.2 4.4-2.4 8 0 1-.4 1.8-.9 1.8-.4 0-.5.5-.2 1.1.4.5.9 2.9 1.2 5.2.7 6.4 5.3 13.9 10.2 16.7 1.6.9 1.6 2 .6 23.5-.3 8.2-.8 19-1 24-.2 4.9-.7 16.6-1 26-.4 9.3-.8 20.4-.9 24.5-.1 4.1-.5 8-.9 8.7-.4.6-.3 1.4.3 1.8.6.4.8 1.1.4 1.6-.3.6-.7 6.2-.9 12.6-.2 6.3-.6 11.8-1 12.1-.3.3-76.3.7-168.8.8-92.5.1-170 .5-172.2.8-2.2.4-5.4.8-7 1-12.9 1.5-43.7 10.1-56.3 15.7-17.1 7.7-39.4 20.8-46.6 27.4-1.4 1.3-2.8 2.5-3.1 2.5-1.6.2-16.6 14.9-23 22.5-2.7 3.3-5.3 6.2-5.6 6.5-3.3 2.9-18.2 27.9-23.4 39.5-2.8 6.2-4.2 8.1-5.8 8.3-3.6.5-6.2.9-6.2 1.1 0 .1-1.2.4-2.6.6-3.4.4-11.6 4.3-15.9 7.4-3 2.2-7 6.2-12.4 12.1-2.1 2.3-10.6 18-11.3 20.9-.3 1.4-1.3 4.2-2.1 6.1-.9 1.9-1.7 3.9-1.8 4.5-.1.5-1.2 4.8-2.4 9.5-2.4 9.4-2.8 11.1-3.5 15.5-.2 1.6-.6 4.1-.9 5.5-.3 1.4-.8 4.5-1 7-.3 2.5-.7 6.1-1 8-3.4 21.7-4.1 94.3-1.1 118.5.3 2.2.7 6 1 8.5.5 5.4 1.5 12.5 2.1 16 .3 1.4.8 4 1.1 5.9.3 1.9 1.6 7.7 3 13 1.3 5.3 2.4 10.2 2.5 10.8.1.7.6 1.3 1.1 1.3.6 0 .8.3.4.6-1.2 1.3 6.3 18.5 11.4 26.2 4.2 6.3 10.4 12.7 15.9 16.5 2.5 1.8 4.7 3.2 5 3.2.3.1 2.1.8 4.1 1.7 3.4 1.5 5.8 2.2 11.8 3.3 2.9.5 2.1-.6 6.1 9.5 3.2 8.2 9.1 20.1 14.1 28.5 2.4 4.2 8.9 13.6 9.9 14.5.3.3 1.7 2.1 3 4 5.3 7.6 19.4 21.7 29 29 1.8 1.4 3.9 3 4.5 3.7 1.3 1.3 23.2 15.2 24 15.3.3 0 4.9 2.1 10.2 4.7 5.4 2.5 10.4 4.6 11.1 4.6.6 0 1.2.5 1.2 1 0 .6.3.8.6.4.4-.3 1.9 0 3.5.9 1.6.8 3.1 1.4 3.4 1.4.3.1 1 .2 1.7.5 3.8 1.2 13.1 3.9 18.3 5.2 3.3.8 6.7 1.6 7.5 1.9 2.3.6 14.3 3.6 16 3.9.8.2 1.6.4 1.8.5.3.3.3.3 7.7 2 3.3.7 6.7 1.5 7.5 1.7.8.3 2.6.6 4 .7 1.4.2 3.2.6 4 .9.8.4 3.1.9 5 1.1 1.9.3 4.7.7 6.3 1 1.5.3 3.8.8 5.2 1 8.4 1.5 14.5 2.6 18 3.1 2.2.3 5.4.8 7 1 4.7.8 10.5 1.4 17 2.1 3.3.3 7.1.7 8.5 1 2.5.5 7.3.9 20 2 22.7 1.8 35.4 2.5 50.2 2.7 7.6.1 13.8.4 13.8.7 0 1.5 90-.4 111-2.4 3-.2 9.1-.8 13.5-1.1 4.4-.4 9.6-.9 11.5-1.1 7.9-.9 15.7-1.7 18.5-1.9 1.7-.1 3-.3 3-.5 0-.1 1.6-.3 3.5-.5 5.1-.4 13.2-1.5 15.5-2.2 1.1-.4 3.4-.7 5-.8 1.7-.1 4.4-.5 6-.8 3.5-.8 5.7-1.3 14-2.8 3.3-.6 11.6-2.4 18.5-4.1 6.9-1.7 13.4-3.2 14.5-3.4 1.1-.2 3.8-.8 6-1.4 2.2-.6 4.7-1.2 5.5-1.4.8-.2 3.5-1 6-1.7s5-1.3 5.5-1.5c.8-.1 8.7-2.3 10.5-2.9.3-.1 1.2-.5 2-.8 5.2-2.2 13.6-5.1 14.3-4.9.4.1.7-.2.7-.8 0-.6.3-.9.8-.8 2.2.4 26.8-12.2 35.3-18.2 2-1.4 4.7-3.2 5.9-4 9.2-6.2 25.1-20.5 33.5-30.1 9-10.3 20.8-27.2 19.8-28.3-.4-.3-.2-.6.4-.6 1.1 0 11.6-20.5 11.6-22.7 0-.7.4-1.3.9-1.3.4 0 .8-.8.8-1.9 0-3.1 2.5-4.2 10.2-4.7 11.1-.8 11.8-.8 11.8-1.7 0-.4.5-.7 1-.7 2.7 0 10.4-4.7 14.9-9 6-6 9.7-11.5 13.5-20 1.6-3.6 3.2-7.2 3.6-8 .4-.9 1.1-3.1 1.5-5 .4-1.9 1.1-4 1.5-4.5.4-.6 1.9-6.9 3.3-14 3.5-17.7 4.2-23.2 6.2-46 2.2-26.4 2.2-75.1 0-107.5-.3-4.7-.8-10.1-1-12-.3-1.9-.7-5.5-.9-8-1.1-11.7-4.9-30.4-8.7-43.5-3.3-10.9-10.6-25.2-15.6-30.3-.7-.7-1.6-1.9-2-2.5-1.4-2.3-10.7-8.3-15.4-10.1-2.6-.9-6.4-1.9-8.5-2.1-2.2-.2-4.1-.5-4.4-.5-.3-.1-3-.3-6-.3-3-.1-5.5-.7-5.5-1.2 0-4.1-23.2-44.5-25.5-44.5-.5 0-1.1-.9-1.5-2-.7-2.1-19.4-21.5-26.5-27.3-2.5-2.1-7-5.5-10-7.7s-6-4.5-6.7-5c-.7-.6-1.5-1-1.8-1-.4 0-2.6-1.3-4.9-2.9-8.2-5.7-37.9-18.9-48.1-21.5-.5-.2-1.7-.6-2.5-.9-4.1-1.5-21.3-5.4-28-6.3-2.5-.3-5.4-.8-6.5-1.1-1.8-.4-8.6-1.1-16-1.6-1.6-.2-3.1-.8-3.1-1.5-.1-.6-.2-1.3-.3-1.5-.1-.1-.4-7.4-.6-16.2-.2-8.8-.7-23.4-1-32.5-.3-9.1-.7-22.8-1-30.5-.2-7.7-.7-21.9-1.1-31.5-.8-21.4-.8-21.1.8-22.1 3.4-2.1 4.8-3.4 4.8-4.6 0-.7.4-1.3.9-1.3s1.8-2.1 2.9-4.8c2.9-6.7 2.4-16.5-1.2-22.6-2.5-4.4-10.5-12.1-11.4-11.1-.3.3-1 .1-1.6-.4-.6-.5-2.7-1.1-4.6-1.3-1.9-.1-3.8-.6-4.1-1.1-.3-.4-.8-.5-1-.2zm5 13.6c5.4 1.6 8.6 6.8 8.6 13.6-.1 4-.6 5.8-2.1 7.4-2 1.9-2.3 2-5.7.6-3.8-1.6-8.7-1.4-12.5.5-3.6 1.8-6.4-1.6-6.8-8.4-.2-4.6.1-5.9 2.3-8.7 2.7-3.4 7.3-6 10.7-6.1 1 0 3.5.5 5.5 1.1zm-3.4 45c1.2 1.8 1.3 5.9.1 5.9-.7 0-.8.3-.1.8.6.4 1.1 4.3 1.2 8.7.1 4.4.4 15.6.7 25 .3 9.3.9 25.1 1.2 35 .3 9.9.7 22.2.7 27.2.1 5.1.6 9.3 1 9.3.5 0 .5.5.1 1.2-1 1.6-1.1 6.9-.1 7.5.4.2.3 1.2-.2 2.1-.7 1.4-2.1 1.7-6.3 1.6-2.9-.1-5.6-.2-6.1-.3-.4-.1-.5-5.6-.2-12.4.3-6.7.8-18.1 1-25.2.3-7.2.8-18 1-24 .9-19.3 1.6-38.7 2-49 .2-5.5.4-10.2.5-10.5.1-.3.2-1.3.1-2.3-.2-1.8 2.4-2.4 3.4-.6zM537.8 893.5c-.2.2-16.1.6-35.3.9-38.4.7-39.7.7-56 3.1-10 1.5-18.2 3.9-24.5 7.4-3.6 1.9-6.2 2.4-12.6 2.6-4.5.2-8.7.6-9.3.9-.6.4-1.1.2-1.1-.4 0-.6-.5-.8-1-.5-.9.6-12.1.9-65 1.9-10.2.2-19.2.6-20 .9-.8.3-3.3.8-5.5 1.1-4.3.6-4.6.6-14.8 3.1-26.8 6.3-55.1 24.7-70.2 45.6-2.2 3-4.2 5.6-4.5 5.9-.7.7-2.9 4.2-3.7 6-.4.8-.9 1.7-1.3 2-1.2.9-7.7 15.4-10.8 24-3.4 9.5-7 23.1-7.6 28.8-.3 2-.5 3.7-.6 3.7-.2 0-.4 1.1-.5 2.5-.2 1.4-.6 5.2-1.1 8.5-.4 3.3-.8 15.9-.8 28l-.1 22 346.3.3c190.4.1 346.2-.1 346.3-.5 1.2-9.8 1.1-50.3-.1-50.3-.3 0-.6-2-.6-4.5-.3-6.8-4.2-24.9-7.9-35.4-5-14.6-12.2-28.5-20.1-38.9-7-9.3-23.7-25.2-26.2-25.2-.6 0-1.2-.3-1.4-.8-.6-1.5-22.4-14.2-24.1-14.1-.1 0-1.5-.5-3.2-1.2-1.6-.7-3.2-1.3-3.5-1.4-.3 0-3.9-1.1-8-2.4-12.7-3.8-15.3-4.4-24.5-5.7-2.2-.3-5.1-.8-6.5-1-2.6-.5-21.8-1.1-60.2-1.8-12.5-.3-23.2-.7-23.7-1.1-.5-.3-1.2-.1-1.6.5-.4.6-1.1.7-1.7.4-.6-.4-6.5-.8-13-.9-7.7-.1-12.2-.6-12.7-1.3-.7-1.1-12.1-6.5-12.1-5.7 0 .2-1.5-.2-3.2-1-1.8-.7-6-1.6-9.3-2-3.3-.4-6.9-1-8-1.2-4.1-.9-14.8-1.4-42.5-1.9-15.7-.2-29.3-.6-30.2-.8-.9-.2-1.8-.2-2-.1z"/></svg>